<svg width="20" height="20" viewBox="0 0 20 20" fill="none" xmlns="http://www.w3.org/2000/svg">
    <path
        d="M19.3166 15.9881L15.9381 12.6096L13.3395 11.536C14.2047 10.3055 14.6683 8.83757 14.6666 7.33332C14.6666 3.2897 11.3769 0 7.33332 0C3.2897 0 0 3.2897 0 7.33332C0 11.3769 3.2897 14.6666 7.33332 14.6666C8.85066 14.6684 10.3308 14.1968 11.5674 13.3176L12.6383 15.9093L16.0166 19.2879C16.2333 19.5046 16.4905 19.6765 16.7736 19.7938C17.0567 19.911 17.3601 19.9714 17.6666 19.9714C17.973 19.9714 18.2764 19.9111 18.5595 19.7938C18.8426 19.6766 19.0998 19.5047 19.3165 19.288C19.5332 19.0714 19.7051 18.8141 19.8224 18.531C19.9396 18.2479 20 17.9445 20 17.6381C20 17.3317 19.9397 17.0282 19.8224 16.7451C19.7052 16.462 19.5333 16.2048 19.3166 15.9881ZM1.33333 7.33332C1.33333 4.02499 4.02499 1.33333 7.33332 1.33333C10.6416 1.33333 13.3333 4.02499 13.3333 7.33332C13.3333 10.6416 10.6416 13.3333 7.33332 13.3333C4.02499 13.3333 1.33333 10.6416 1.33333 7.33332ZM18.3738 18.3451C18.1861 18.5324 17.9318 18.6376 17.6666 18.6376C17.4015 18.6376 17.1472 18.5324 16.9595 18.3451L13.769 15.1546L12.7734 12.7448L15.1833 13.7404L18.3738 16.9309C18.5611 17.1186 18.6662 17.3729 18.6662 17.638C18.6662 17.9032 18.561 18.1574 18.3738 18.3451Z"
        fill="#667243" />
</svg>